<svg width="66" height="28" viewBox="0 0 66 28" fill="none" xmlns="http://www.w3.org/2000/svg">
<g id="FLC">
<g id="FLC_2">
<path d="M0 27.6274L4.32198 0.372624H21.559L20.7963 5.12357H9.06344L8.04651 11.6179H18.6354L17.8727 16.3688H7.2838L5.50417 27.6274H0Z" fill="black"/>
<path d="M20.9394 27.6274L25.2613 0.372624H30.7655L27.2062 22.8764H38.3671L37.6044 27.6274H20.9394Z" fill="black"/>
<path d="M65.9896 9.91445H60.4982C60.5151 9.15146 60.4219 8.47719 60.2185 7.89163C60.0151 7.29721 59.71 6.79151 59.3033 6.37452C58.905 5.95754 58.4177 5.64259 57.8414 5.42966C57.2652 5.20786 56.6169 5.09696 55.8965 5.09696C54.5067 5.09696 53.2313 5.46071 52.0703 6.18821C50.9093 6.91572 49.9305 7.97148 49.1339 9.35551C48.3373 10.7307 47.7865 12.3942 47.4814 14.346C47.1848 16.2269 47.2017 17.8016 47.5322 19.0703C47.8627 20.339 48.4475 21.2972 49.2864 21.9449C50.1339 22.5836 51.189 22.903 52.4517 22.903C53.2313 22.903 53.9728 22.801 54.6762 22.597C55.3796 22.384 56.0194 22.0824 56.5957 21.692C57.1804 21.2928 57.6889 20.8093 58.1211 20.2414C58.5617 19.6736 58.905 19.0304 59.1507 18.3118H64.6803C64.3329 19.5627 63.7905 20.7693 63.0532 21.9316C62.3244 23.0938 61.4219 24.1318 60.3456 25.0456C59.2694 25.9506 58.0448 26.6692 56.6719 27.2015C55.2991 27.7338 53.7949 28 52.1593 28C49.7949 28 47.7653 27.4322 46.0704 26.2966C44.384 25.161 43.1679 23.5241 42.4221 21.3859C41.6764 19.2478 41.5365 16.6705 42.0026 13.654C42.4687 10.7351 43.3797 8.25982 44.7357 6.22814C46.1 4.18758 47.7568 2.63942 49.7059 1.58365C51.6635 0.527883 53.7567 0 55.9855 0C57.5363 0 58.9389 0.2218 60.1931 0.665399C61.4473 1.109 62.5151 1.75665 63.3964 2.60836C64.2863 3.4512 64.9557 4.48479 65.4049 5.70913C65.854 6.93346 66.0489 8.33523 65.9896 9.91445Z" fill="black"/>
</g>
</g>
</svg>
